<?xml version="1.0" standalone="no"?>
<!DOCTYPE svg PUBLIC "-//W3C//DTD SVG 20010904//EN"
 "http://www.w3.org/TR/2001/REC-SVG-20010904/DTD/svg10.dtd">
<svg version="1.0" xmlns="http://www.w3.org/2000/svg"
 width="1341.000000pt" height="1341.000000pt" viewBox="0 0 1341.000000 1341.000000"
 preserveAspectRatio="xMidYMid meet">
<metadata>
Created by potrace 1.14, written by Peter Selinger 2001-2017
</metadata>
<g transform="translate(0.000000,1341.000000) scale(0.100000,-0.100000)"
fill="#000000" stroke="none">
<path d="M856 11793 c-1 -2 -192 -4 -424 -5 -375 -2 -422 -4 -423 -17 0 -9 -3
-384 -5 -833 l-3 -818 822 -1 c452 -1 842 -2 867 -4 76 -4 224 -16 250 -20 14
-2 68 -9 120 -15 137 -17 357 -62 517 -105 438 -119 857 -327 1193 -594 134
-106 298 -262 387 -367 23 -27 51 -60 64 -74 39 -44 154 -202 211 -290 173
-267 323 -582 428 -900 70 -210 94 -304 130 -505 37 -211 44 -295 45 -535 0
-184 -7 -330 -19 -400 -3 -14 -7 -45 -10 -70 -3 -25 -8 -56 -11 -70 -2 -14
-12 -63 -21 -110 -27 -141 -84 -340 -149 -520 -46 -126 -184 -421 -252 -540
-185 -320 -372 -576 -574 -784 -98 -102 -283 -264 -359 -316 -19 -13 -37 -27
-40 -30 -7 -8 -97 -67 -185 -120 -68 -42 -238 -129 -320 -165 -22 -9 -49 -21
-60 -26 -91 -40 -371 -133 -465 -154 -123 -28 -251 -56 -275 -60 -41 -7 -210
-33 -265 -40 -25 -3 -61 -7 -80 -10 -47 -6 -120 -13 -212 -21 l-78 -6 0 2356
0 2356 -818 0 -819 0 0 -3159 0 -3159 966 2 c531 2 993 6 1026 9 33 4 78 9
100 11 22 3 67 8 100 11 33 4 67 8 75 10 8 2 40 7 70 10 30 3 62 8 70 10 8 2
31 7 50 10 67 11 146 26 225 45 44 10 94 21 110 24 17 3 55 13 85 21 30 9 87
24 125 35 170 46 498 167 680 250 70 32 297 144 325 160 73 43 267 156 275
160 86 43 441 304 608 449 203 174 520 503 642 666 17 22 38 49 48 60 67 74
264 368 375 560 331 569 566 1250 647 1875 4 25 8 59 11 75 3 17 7 48 9 70 2
22 7 74 10 115 4 41 9 98 10 125 6 84 6 496 1 565 -15 191 -32 356 -41 410 -3
14 -7 41 -10 60 -3 19 -10 60 -15 90 -5 30 -12 71 -15 90 -13 77 -68 307 -101
417 -19 65 -36 125 -38 133 -13 47 -101 294 -146 405 -49 124 -202 442 -273
570 -71 129 -265 431 -319 500 -5 6 -44 58 -88 116 -152 203 -409 487 -586
649 -158 145 -211 190 -363 308 -85 66 -343 245 -447 309 -405 251 -972 489
-1406 589 -10 2 -27 6 -38 9 -61 15 -201 44 -247 50 -21 3 -49 8 -63 11 -56
10 -67 12 -121 18 -31 4 -65 8 -76 10 -11 2 -53 7 -94 11 -41 3 -85 8 -99 10
-27 4 -171 15 -260 20 -181 10 -957 24 -964 18z"/>
<path d="M12018 11786 c-1 -2 -41 -6 -88 -10 -47 -3 -107 -8 -135 -11 -27 -3
-70 -8 -94 -10 -24 -2 -51 -6 -60 -9 -9 -3 -38 -7 -66 -11 -27 -3 -57 -8 -65
-10 -8 -2 -32 -6 -52 -9 -205 -30 -686 -171 -873 -255 -11 -5 -69 -31 -130
-57 -264 -115 -551 -279 -799 -457 -60 -44 -115 -84 -122 -91 -6 -6 -24 -20
-40 -31 -138 -99 -504 -450 -646 -620 -328 -393 -565 -782 -751 -1235 -77
-188 -197 -574 -224 -720 -2 -14 -9 -45 -15 -70 -5 -25 -12 -58 -14 -75 -3
-16 -9 -55 -14 -85 -5 -30 -12 -73 -15 -95 -4 -22 -8 -50 -10 -62 -2 -12 -7
-57 -10 -100 -4 -43 -9 -87 -11 -98 -2 -11 -7 -102 -11 -202 -5 -153 -4 -183
8 -184 58 -3 1661 -1 1663 2 2 2 7 63 10 136 4 73 8 138 10 145 3 7 7 40 10
73 6 61 12 103 21 141 3 12 7 39 11 60 3 21 17 80 30 130 137 531 399 979 794
1359 62 60 90 85 189 165 24 19 49 40 55 45 6 6 27 21 46 34 222 158 482 295
701 371 52 18 103 36 114 40 11 5 31 11 45 14 14 4 68 17 120 31 97 25 128 31
190 40 19 3 44 7 55 10 11 2 40 7 65 10 25 3 63 8 85 11 22 3 328 8 680 9 352
2 656 4 676 4 l37 1 0 840 0 841 -683 -1 c-376 -1 -685 -3 -687 -4z"/>
<path d="M13017 7824 c-1 -1 -56 -4 -122 -8 -66 -3 -140 -8 -165 -10 -92 -9
-172 -17 -188 -21 -9 -1 -42 -6 -73 -9 -31 -4 -67 -9 -80 -11 -13 -3 -39 -7
-59 -10 -20 -3 -47 -8 -60 -10 -14 -3 -41 -8 -60 -11 -19 -3 -55 -10 -80 -16
-25 -5 -56 -12 -69 -14 -12 -3 -53 -12 -90 -20 -36 -9 -73 -17 -81 -19 -94
-21 -446 -129 -535 -165 -11 -4 -47 -18 -80 -31 -273 -103 -613 -270 -890
-438 -50 -30 -294 -192 -315 -208 -8 -6 -60 -45 -115 -86 -379 -283 -738 -640
-1051 -1043 -114 -147 -344 -490 -344 -513 0 -6 -3 -11 -7 -11 -5 0 -13 -10
-19 -23 -6 -12 -43 -79 -82 -150 -259 -468 -447 -986 -557 -1532 -15 -71 -29
-146 -31 -165 -2 -19 -9 -60 -14 -90 -5 -30 -12 -77 -15 -105 -3 -27 -8 -63
-10 -80 -2 -16 -7 -61 -10 -100 -3 -38 -9 -88 -12 -110 -2 -22 -7 -299 -10
-617 l-5 -576 841 0 841 0 0 21 c0 12 2 252 5 532 2 281 6 528 9 550 3 22 8
65 11 95 7 63 32 233 40 270 3 14 8 39 10 55 3 17 8 37 10 45 2 8 7 26 9 40 3
14 10 45 17 70 6 25 12 52 14 60 16 67 100 322 132 400 3 8 7 20 9 25 7 26 92
212 142 310 72 141 177 321 212 362 5 7 10 15 10 18 0 12 195 268 269 355 509
594 1183 1012 1941 1205 36 10 74 19 85 21 101 20 185 36 210 39 17 3 46 7 65
10 101 15 103 15 275 31 39 3 155 7 260 8 l189 2 6 29 c4 23 5 1557 1 1637 -1
15 -20 16 -192 15 -105 -1 -191 -3 -192 -3z"/>
</g>
</svg>
