<?xml version="1.0" standalone="no"?>
<!DOCTYPE svg PUBLIC "-//W3C//DTD SVG 20010904//EN"
 "http://www.w3.org/TR/2001/REC-SVG-20010904/DTD/svg10.dtd">
<svg version="1.0" xmlns="http://www.w3.org/2000/svg"
 width="1529.000000pt" height="1529.000000pt" viewBox="0 0 1529.000000 1529.000000"
 preserveAspectRatio="xMidYMid meet">
<metadata>
Created by potrace 1.14, written by Peter Selinger 2001-2017
</metadata>
<g transform="translate(0.000000,1529.000000) scale(0.100000,-0.100000)"
fill="#000000" stroke="none">
<path d="M926 13452 c-2 -1 -208 -3 -459 -4 l-455 -2 -4 -50 c-2 -27 -3 -455
-3 -950 l0 -901 945 -1 c520 -1 983 -4 1030 -8 322 -23 550 -56 825 -122 154
-36 449 -127 530 -163 11 -5 61 -26 110 -46 331 -137 687 -354 952 -581 197
-168 451 -450 595 -660 62 -90 168 -259 168 -268 0 -3 10 -20 23 -38 39 -58
203 -397 263 -543 79 -194 157 -436 199 -615 18 -74 37 -169 50 -240 13 -75
18 -113 30 -210 26 -198 26 -688 1 -828 -2 -9 -7 -44 -11 -77 -4 -32 -8 -66
-10 -75 -6 -38 -16 -87 -20 -110 -3 -14 -8 -38 -11 -55 -13 -74 -77 -311 -114
-425 -181 -546 -511 -1124 -881 -1544 -457 -518 -993 -847 -1684 -1035 -178
-48 -463 -105 -635 -126 -113 -14 -137 -17 -160 -20 -55 -8 -188 -19 -245 -19
l-60 -1 -2 2665 c-1 1466 -2 2674 -2 2685 -1 20 -7 20 -923 19 -508 -1 -928
-2 -933 -3 -7 -1 -10 -1206 -10 -3600 0 -3192 2 -3600 15 -3604 8 -2 485 -2
1060 -2 934 2 1118 5 1265 21 22 2 63 7 90 9 115 13 196 23 265 35 30 5 71 12
90 15 272 43 803 182 1000 262 8 4 17 7 20 7 17 4 176 68 295 119 128 54 418
194 508 246 20 11 54 30 75 42 171 97 558 351 592 389 3 3 21 17 40 30 30 20
175 135 190 150 3 3 23 20 45 39 171 145 436 403 565 551 40 47 76 87 79 90
16 14 255 316 289 366 7 11 36 53 65 94 183 259 396 639 537 960 43 98 138
333 145 360 2 8 22 65 44 127 71 201 190 650 215 813 3 19 12 71 20 115 8 44
17 98 20 120 3 22 8 59 11 83 3 23 7 59 10 80 10 78 23 233 30 352 10 154 4
593 -9 715 -3 28 -8 82 -11 120 -3 39 -8 81 -10 95 -3 23 -9 68 -21 160 -2 19
-9 61 -14 92 -6 32 -12 69 -15 83 -59 342 -169 734 -302 1080 -36 94 -44 113
-87 208 -14 32 -26 60 -26 62 0 13 -166 345 -225 450 -166 298 -400 645 -587
869 -143 173 -237 276 -398 436 -206 206 -245 243 -375 350 -49 41 -92 77 -95
80 -3 3 -34 28 -70 55 -36 27 -67 52 -70 55 -7 9 -202 148 -290 207 -189 126
-432 265 -665 381 -83 41 -427 191 -450 197 -5 1 -23 8 -40 14 -74 31 -396
134 -517 166 -157 41 -337 81 -428 96 -70 11 -102 16 -152 25 -18 3 -49 7 -68
9 -19 2 -69 8 -110 14 -41 5 -106 13 -145 16 -38 3 -88 8 -110 10 -37 4 -161
12 -280 20 -166 11 -1101 25 -1109 17z"/>
<path d="M13728 13446 c-1 -2 -51 -7 -110 -10 -59 -4 -117 -9 -130 -11 -13 -2
-48 -6 -78 -10 -188 -20 -299 -39 -580 -100 -196 -42 -598 -171 -766 -246 -22
-10 -65 -27 -94 -39 -85 -34 -365 -174 -489 -245 -63 -36 -119 -65 -123 -65
-4 0 -8 -4 -8 -9 0 -5 -9 -12 -19 -16 -29 -9 -286 -183 -419 -284 -469 -354
-861 -771 -1186 -1261 -233 -350 -392 -659 -535 -1036 -121 -321 -226 -726
-271 -1039 -6 -44 -13 -93 -15 -110 -3 -16 -7 -57 -11 -90 -3 -33 -7 -73 -9
-90 -7 -56 -18 -280 -19 -380 l-1 -100 958 -1 c874 -1 957 0 958 15 0 9 2 63
4 121 2 58 6 130 9 160 4 30 9 75 12 100 3 25 7 56 9 70 2 14 9 57 15 95 17
108 68 306 116 451 242 732 740 1353 1404 1754 338 204 750 358 1116 416 20 3
44 7 53 9 9 2 44 6 76 10 33 4 71 8 84 10 79 13 354 18 934 18 l657 0 1 86 c0
47 0 478 1 956 l0 870 -770 2 c-424 1 -772 0 -774 -1z"/>
<path d="M14787 8924 c-1 -1 -51 -5 -112 -8 -179 -11 -293 -23 -460 -47 -38
-6 -88 -12 -110 -15 -83 -11 -445 -87 -575 -120 -572 -148 -1113 -375 -1620
-678 -127 -76 -439 -280 -450 -295 -3 -3 -16 -14 -31 -23 -34 -21 -254 -192
-305 -237 -22 -20 -67 -58 -99 -86 -113 -97 -161 -141 -315 -295 -136 -135
-268 -276 -338 -360 -123 -148 -221 -272 -274 -344 -20 -28 -50 -69 -66 -91
-86 -119 -332 -504 -332 -520 0 -2 -14 -28 -31 -57 -97 -164 -262 -510 -352
-738 -50 -128 -107 -286 -112 -313 -2 -9 -6 -21 -10 -26 -28 -47 -174 -610
-201 -780 -3 -18 -8 -43 -10 -55 -2 -11 -7 -37 -10 -56 -3 -19 -7 -42 -9 -50
-3 -8 -7 -35 -10 -60 -3 -25 -12 -99 -21 -164 -16 -127 -19 -160 -29 -301 -4
-49 -8 -110 -10 -135 -9 -107 -6 -1213 3 -1219 8 -4 1813 -6 1892 -2 13 1 15
63 16 494 0 447 7 747 18 803 2 12 7 57 11 100 4 43 9 82 11 85 1 3 6 32 9 65
4 32 9 62 11 65 2 4 6 22 8 40 30 224 170 683 295 964 165 369 427 784 667
1055 163 184 274 294 478 475 23 20 153 124 221 175 79 60 349 240 360 240 4
0 19 8 33 18 53 37 276 153 402 209 338 150 766 278 1067 319 26 3 56 8 67 10
10 2 44 6 75 9 31 3 65 8 76 10 62 12 279 23 503 24 l172 1 0 959 0 959 -251
-2 c-138 0 -251 -2 -252 -2z"/>
</g>
</svg>
