<svg xmlns="http://www.w3.org/2000/svg" width="39.96" height="31.039" viewBox="0 0 39.96 31.039"><defs><style>.a{fill:#f9f1e7;}</style></defs><g transform="translate(-1487.032 -403.649)"><path class="a" d="M1600.613,465.988c-2.857,3.275-3.623,6.969-3.531,11.3a21.285,21.285,0,0,1,0,2.259h4.977c0-1.665-.031-2.154.005-3.747,0-6.826,4.472-10.626,11.722-10.626v-4.7c-5.737,0-10.072,1.947-13.179,5.51" transform="translate(-86.87 -44.861)"/><path class="a" d="M1614.085,403.662c-8.07-.285-16.95,4.241-16.68,15.994.012,0,4.924.008,4.924,0,0-7.366,4.659-11.24,11.765-11.24,0-.13.058-4.75-.009-4.75" transform="translate(-87.126)"/><path class="a" d="M1495.083,404.707a30.552,30.552,0,0,0-7.157-.433h-.854s-.018,3.248-.018,4.44h4.489c4.149.211,7.353,1.935,9.38,5.472a10.929,10.929,0,0,1-8.709,16.383l-.2.013v-4.462h-4.985v8.928h4.985v0c.075,0,.147,0,.218-.005a15.39,15.39,0,0,0,2.848-30.331" transform="translate(0 -0.483)"/></g></svg>