<svg xmlns="http://www.w3.org/2000/svg" width="201.662" height="35.534" viewBox="0 0 201.662 35.534"><defs><style>.a{fill:#081d1a;}</style></defs><g transform="translate(-152.165 -222.043)"><path class="a" d="M161.7,222.545a38.639,38.639,0,0,0-8.549-.488h-.963s-.02,4.38-.02,5.724h5.061c4.024,0,8.189,1.562,10.475,5.549a11.71,11.71,0,0,1-.548,13.215c-2.219,3.25-5.162,4.468-9.072,4.773l-.222.015V235.141h-5.62v21.708l6.1-.005c.084,0,.166,0,.246-.006A17.336,17.336,0,0,0,174.811,242.5,17.532,17.532,0,0,0,161.7,222.545Z"/><path class="a" d="M361.343,330.408v-3.44h-5.472v21.475h5.6v-10.23c0-4.013,1.808-6.306,5.777-6.306a11.161,11.161,0,0,1,1.676.132v-5.2a7.343,7.343,0,0,0-1.367-.132A6.5,6.5,0,0,0,361.343,330.408Z" transform="translate(-178.14 -91.526)"/><path class="a" d="M1291.721,330.408v-3.44h-5.472v21.475h5.6v-10.23c0-4.013,1.808-6.306,5.777-6.306a11.162,11.162,0,0,1,1.676.132v-5.2a7.346,7.346,0,0,0-1.367-.132A6.5,6.5,0,0,0,1291.721,330.408Z" transform="translate(-991.75 -91.526)"/><path class="a" d="M1095.4,322.825a11.437,11.437,0,1,0,11.35,11.437A11.03,11.03,0,0,0,1095.4,322.825Zm0,17.984c-3.492,0-5.849-2.619-5.849-6.548s2.357-6.548,5.849-6.548,5.849,2.619,5.849,6.548S1098.9,340.809,1095.4,340.809Z" transform="translate(-814.932 -88.134)"/><path class="a" d="M1609.923,333.738c0-6.5-4.234-10.913-10.52-10.913-6.373,0-10.869,4.714-10.869,11.262,0,6.722,4.671,11.611,11.131,11.611,5.806,0,8.357-3.012,9.66-5.36L1604.208,339c-1.046,1.432-2.209,1.988-4.63,1.988a5.268,5.268,0,0,1-5.413-5.107h15.758Zm-15.714-1.7c.437-2.663,2.052-4.5,5.151-4.5,2.837,0,4.583,1.746,4.976,4.5Z" transform="translate(-1256.097 -88.134)"/><path class="a" d="M749.273,333.738c0-6.5-4.234-10.913-10.52-10.913-6.373,0-10.869,4.714-10.869,11.262,0,6.722,4.671,11.611,11.131,11.611,5.806,0,8.357-3.012,9.66-5.36L743.558,339c-1.046,1.432-2.209,1.988-4.63,1.988a5.268,5.268,0,0,1-5.413-5.107h15.758Zm-15.714-1.7c.437-2.663,2.052-4.5,5.151-4.5,2.837,0,4.583,1.746,4.976,4.5Z" transform="translate(-503.463 -88.134)"/><path class="a" d="M936.632,223.139H936.6a15.519,15.519,0,0,0-15.469,15.5H926.9a9.741,9.741,0,0,1,9.7-9.73v0h3.829v-5.776Z" transform="translate(-672.456 -0.959)"/><path class="a" d="M1407.863,327.735a5.2,5.2,0,0,1,5.415,4.8l5.415-1.4c-1.135-4.935-4.891-8.3-10.917-8.3a11.443,11.443,0,0,0,0,22.883c6.07,0,9.87-3.363,10.917-8.3l-5.415-1.354c-.568,2.838-2.1,4.76-5.415,4.76-3.537,0-5.852-2.621-5.852-6.55S1404.544,327.735,1407.863,327.735Z" transform="translate(-1088.172 -88.15)"/><rect class="a" width="5.376" height="21.546" transform="translate(193.634 235.34)"/><path class="a" d="M483.335,252.111a3.1,3.1,0,1,0,3.1,3.1A2.987,2.987,0,0,0,483.335,252.111Z" transform="translate(-286.893 -26.295)"/><path class="a" d="M564.5,327.99l-5.749,15.844-5.838-15.844h-5.7l8.427,21.7h6.166l8.3-21.7Z" transform="translate(-345.471 -92.65)"/><path class="a" d="M920.64,349.247v2.684h5.771v-2.684a12.877,12.877,0,0,1,12.862-12.862h.649v-5.771h-.649A18.655,18.655,0,0,0,920.64,349.247Z" transform="translate(-672.027 -94.944)"/></g></svg>