<svg xmlns="http://www.w3.org/2000/svg" width="61.122" height="61.122" viewBox="0 0 61.122 61.122"><defs><style>.a{opacity:0.862;}.b{fill:#37411b;}</style></defs><g class="a" transform="translate(-0.001 0)"><path class="b" d="M-286.335,100.232A30.561,30.561,0,0,0-316.9,69.671a30.561,30.561,0,0,0-30.561,30.56h0v0a30.56,30.56,0,0,0,30.56,30.56,30.561,30.561,0,0,0,30.563-30.56h0ZM-330.224,121.7l-.911,1.144a1.647,1.647,0,0,1-1.113.652,1.63,1.63,0,0,1-.171.008,1.7,1.7,0,0,1-1.057-.393l-1.97-1.568a1.67,1.67,0,0,1-.652-1.113,1.662,1.662,0,0,1,.385-1.231l.689-.863,1.341,1.068-.492.618a.276.276,0,0,0,.051.438l1.371,1.09a.34.34,0,0,0,.233.087.322.322,0,0,0,.205-.135l.531-.669c.118-.146.1-.247-.059-.45l-1.355-1.652a1.821,1.821,0,0,1-.259-2.363l.854-1.074a1.669,1.669,0,0,1,1.113-.652,1.655,1.655,0,0,1,1.228.388l1.863,1.484a1.6,1.6,0,0,1,.267,2.341l-.632.8-1.34-1.068.436-.548a.274.274,0,0,0-.051-.438l-1.265-1.009a.274.274,0,0,0-.438.051l-.478.6c-.115.146-.1.247.062.45l1.355,1.655A1.817,1.817,0,0,1-330.224,121.7Zm9.12-.025-.683,1.928a1.649,1.649,0,0,1-.837.978,1.651,1.651,0,0,1-1.287.039l-2.31-.815-.95,2.692-1.658-.587.022-.065,2.718-7.7.067.025,3.9,1.377a1.65,1.65,0,0,1,.978.837A1.662,1.662,0,0,1-321.1,121.677Zm7.183,5.12a1.654,1.654,0,0,1-.464,1.2,1.655,1.655,0,0,1-1.2.463h0l-2.709,0a1.6,1.6,0,0,1-1.667-1.669l.008-4.991a1.655,1.655,0,0,1,.464-1.2,1.654,1.654,0,0,1,1.2-.464h0l2.709,0a1.6,1.6,0,0,1,1.667,1.669Zm7.81-.483-2.234-2.392-1.119.4,1,2.827-1.658.59-.022-.068-2.729-7.694,3.954-1.4a1.656,1.656,0,0,1,1.287.037,1.655,1.655,0,0,1,.84.978l.635,1.79a1.579,1.579,0,0,1-.489,1.84l2.319,2.462ZM-300.26,123l-.042-.056-4.01-5.134-1.667,1.3-1.014-1.3.056-.045,4.662-3.639,1.015,1.3-1.667,1.3,4.055,5.194Zm-16.634-4.64c-.214,0-.427,0-.638-.011-.141-.006-.281-.012-.419-.02-.084-.006-.169-.008-.253-.017-.053,0-.11-.006-.163-.011l-.292-.026c-.157-.017-.315-.034-.469-.053-.177-.02-.354-.045-.528-.07-.23-.037-.458-.076-.686-.121-.107-.02-.211-.039-.315-.062l-.2-.042c-.107-.026-.211-.048-.318-.076-.056-.011-.112-.025-.171-.042-.155-.039-.309-.079-.464-.124-.371-.1-.739-.219-1.1-.346-.135-.048-.27-.1-.4-.146-.02-.009-.039-.014-.056-.023-.16-.059-.318-.121-.472-.188s-.289-.121-.433-.186q-.552-.245-1.088-.528c-.115-.059-.228-.121-.34-.185-.087-.048-.177-.1-.264-.149l-.329-.194s-.006,0-.008-.005c-.25-.152-.495-.309-.736-.472-.031-.02-.059-.039-.087-.059-.138-.1-.273-.191-.408-.287s-.253-.188-.379-.284c-.155-.118-.3-.236-.455-.359a18.623,18.623,0,0,1-1.549-1.422c-.368-.377-.719-.77-1.048-1.181-.112-.135-.222-.272-.326-.413s-.214-.279-.315-.422l9.08-6.34,11.938,6.228-2.091-11.106-3.639,2.541,2.327,4.842-8.51-2.521,16.918-11.812h-24.866l13.866,2.712-15.2,15.2c-.132-.183-.256-.368-.374-.556-.062-.093-.124-.189-.18-.287-.053-.081-.1-.163-.149-.245-.065-.11-.129-.222-.194-.334q-.169-.291-.32-.59c-.053-.1-.1-.2-.155-.3s-.1-.2-.146-.3c-.143-.306-.281-.615-.41-.933-.042-.1-.084-.208-.124-.315-.188-.5-.36-1-.506-1.52-.034-.118-.067-.239-.1-.36q-.228-.873-.371-1.776l-.042-.284c-.022-.172-.045-.343-.065-.517-.008-.081-.017-.163-.025-.247-.025-.25-.045-.5-.059-.756-.006-.087-.008-.171-.011-.255-.006-.113-.008-.222-.011-.334,0-.141-.006-.284-.006-.427v-.008h-11.444A29.574,29.574,0,0,1-316.9,70.657a29.576,29.576,0,0,1,29.576,29.574h-11.444A18.131,18.131,0,0,1-316.894,118.363Z" transform="translate(347.458 -69.671)"/><path class="b" d="M-217.689,129.846l-4.463,4.466h8.954A16.407,16.407,0,0,0-217.689,129.846Z" transform="translate(257.368 -112.935)"/><rect class="b" width="1.558" height="7.793" transform="matrix(0.202, -0.979, 0.979, 0.202, 3.289, 25.718)"/><path class="b" d="M-327.432,121.752l4.617,2.625-6.034-.132-.829,1.459,6.773,3.847.722-1.27-4.62-2.622,6.037.129.829-1.456-6.773-3.85Z" transform="translate(334.674 -106.202)"/><path class="b" d="M-301.062,98.024l-2.243,1.787-1.037-1.3,2.765-2.206-.916-1.152-3.985,3.178,4.856,6.09,1.217-.972-1.981-2.484,2.24-1.79Z" transform="translate(317.995 -87.991)"/><path class="b" d="M-271.785,83.848a1.464,1.464,0,0,0-1.934-.989l-2.482.8a1.47,1.47,0,0,0-.989,1.936l1.478,4.57a1.466,1.466,0,0,0,1.936.989l2.479-.8a1.466,1.466,0,0,0,.989-1.936Zm-.334,5.224-1.74.562a.328.328,0,0,1-.461-.236l-1.293-3.993a.332.332,0,0,1,.236-.464l1.74-.562a.33.33,0,0,1,.464.236l1.293,3.993A.332.332,0,0,1-272.12,89.072Z" transform="translate(297 -79.09)"/><path class="b" d="M-237.351,83.23l.132-1.824a1.465,1.465,0,0,0-1.425-1.642l-3.96-.284-.554,7.771,1.554.11.205-2.881,1.251.09,1.048,2.971,1.672.118-1.085-3.038A1.446,1.446,0,0,0-237.351,83.23Zm-1.532-.391a.332.332,0,0,1-.393.34l-2.018-.146.141-1.973,2.018.143a.332.332,0,0,1,.34.393Z" transform="translate(272.47 -76.724)"/><path class="b" d="M-212.416,88.676l-.424,4.275.986.542,3.384-2.647-2.5,4.55,1.29.708,3.755-6.826-1.5-.823-3.965,3.032.436-4.972-1.5-.823-3.752,6.826,1.287.708Z" transform="translate(253.094 -81.189)"/><path class="b" d="M-185.344,117.153l1.414-1.074,1.734,2.285,1.172-.891-1.734-2.282,1.276-.97,2.139,2.816,1.172-.891-3.083-4.055-6.2,4.713,3.083,4.058,1.172-.891Z" transform="translate(232.423 -100.17)"/><path class="b" d="M-164.645,146.065l-1.11-3.9-7.492,2.139,1.113,3.9a1.463,1.463,0,0,0,1.9,1.057l4.539-1.293A1.465,1.465,0,0,0-164.645,146.065Zm-1.773.484-3.954,1.127a.332.332,0,0,1-.455-.253l-.579-2.029,4.662-1.33.579,2.029A.332.332,0,0,1-166.418,146.549Z" transform="translate(222.207 -121.79)"/><path class="b" d="M-267.312,250.531l-1.925-.68-.68,1.925,1.928.68a.307.307,0,0,0,.245,0,.306.306,0,0,0,.152-.194l.472-1.335a.328.328,0,0,0,.006-.247A.313.313,0,0,0-267.312,250.531Z" transform="translate(291.709 -199.214)"/><path class="b" d="M-241.147,255.174l-1.9,0h0a.276.276,0,0,0-.312.312l-.006,4.361a.277.277,0,0,0,.312.312l1.9,0h0a.308.308,0,0,0,.233-.078.321.321,0,0,0,.079-.234l0-4.362a.318.318,0,0,0-.076-.233A.313.313,0,0,0-241.147,255.174Z" transform="translate(272.621 -203.039)"/><path class="b" d="M-214.194,249.873a.322.322,0,0,0-.152-.2.321.321,0,0,0-.244.006l-1.917.68.641,1.807,1.917-.68a.275.275,0,0,0,.188-.4Z" transform="translate(253.309 -199.073)"/></g></svg>