<svg xmlns="http://www.w3.org/2000/svg" width="101.688" height="42.408" viewBox="0 0 101.688 42.408"><defs><style>.a{opacity:0.862;}.b{fill:#37411b;}</style></defs><g class="a" transform="translate(0 0)"><path class="b" d="M137.23,77.728c-3.727,0-7.355-.167-10.958.061-2.241.142-3.367-.571-4.173-2.644-1.055-2.712-2.48-5.28-3.882-8.192l-1.888,10.732H106.2l4.586-26.04c.3-.023.6-.066.9-.067,2.725-.005,5.45.018,8.175-.018a1.158,1.158,0,0,1,1.234.8c2.455,5.2,4.946,10.381,7.429,15.567.113.235.248.46.405.748l2.674-17.021h10.218Z" transform="translate(-104.244 -50.634)"/><path class="b" d="M300.8,68.236h-4.6c.394-2.28.758-4.444,1.161-6.6.027-.147.347-.341.531-.342,4.612-.019,9.225-.015,13.972-.015l-2.205,12.9h-1.066c-9.276,0-18.553-.013-27.829.023a1.266,1.266,0,0,1-1.462-1.044,19.738,19.738,0,0,1,.418-11.9C283.854,48.31,296.137,45.2,304.9,48.073a10.076,10.076,0,0,1,7.051,9.911c0,.233-.038.466-.062.75h-9.839c-.049-.055-.119-.1-.132-.154-.756-3.127-3.64-4.453-6.877-3.155a7.586,7.586,0,0,0-3.97,4.025,17.917,17.917,0,0,0-1.807,7.685c-.042,3.96,2.823,6.169,6.69,5.152A7.412,7.412,0,0,0,300.8,68.236Z" transform="translate(-240.927 -47.086)"/><path class="b" d="M474.055,51.678l-1.307,7.42h-14.43l-1.02,5.8h11.484l-1.324,7.526H465.07c-2.724,0-5.449.031-8.173-.02-.76-.014-1.028.26-1.129.957q-.266,1.839-.653,3.66c-.055.262-.346.676-.532.679-3.336.041-6.672.03-10.123.03.407-2.382.784-4.649,1.184-6.911,1.084-6.138,2.185-12.273,3.257-18.413.1-.558.239-.837.887-.835q11.9.034,23.795.021A3.785,3.785,0,0,1,474.055,51.678Z" transform="translate(-372.48 -50.643)"/><path class="b" d="M204.62,184.607c.227.769-.016,1.036-.672.97-.239-.024-.482,0-.724,0h-98.51c-.147-.654-.056-1.026.646-.969.206.016.414,0,.621,0H204.62Z" transform="translate(-103.015 -156.133)"/><path class="b" d="M315.876,195.361c-4.1,4.681-14.407,4.681-18.262,0Z" transform="translate(-256.031 -164.667)"/><path class="b" d="M450.1,194.8l-.508,3.055H439.048c.145-.869.251-1.711.447-2.531a.82.82,0,0,1,.59-.5C443.387,194.8,446.689,194.8,450.1,194.8Z" transform="translate(-368.188 -164.225)"/><path class="b" d="M208.569,198.056c-3.088,0-6.077.006-9.065-.014a.759.759,0,0,1-.569-.312c-.46-.867-.869-1.761-1.341-2.739h11.493Z" transform="translate(-176.715 -164.375)"/><path class="b" d="M111.447,195.131l-.492,2.964H100.84l.483-2.964Z" transform="translate(-99.99 -164.485)"/><path class="b" d="M397.2,195.026l-.552,3.006h-6.958c.081-1.036.158-2.012.236-3.006Z" transform="translate(-329.049 -164.401)"/><path class="b" d="M567.655,234.561c-1.714.724-1.6-.959-2.354-1.683l-.374,1.782h-1.3l.672-3.986c1.683-.7,1.638.877,2.34,1.7l.418-1.8h1.281Z" transform="translate(-466.979 -192.533)"/><path class="b" d="M199.574,232.819l-.4,1.839h-1.312l.7-3.959c1.707-.74,1.633.939,2.35,1.718l.367-1.8H202.6l-.691,3.957C200.239,235.246,200.267,233.706,199.574,232.819Z" transform="translate(-176.93 -192.544)"/><path class="b" d="M440.476,230.7c1.731-.687,1.62.986,2.353,1.7l.368-1.782h1.311l-.682,3.972c-1.693.7-1.624-.916-2.333-1.712l-.4,1.793h-1.306Z" transform="translate(-368.77 -192.566)"/><path class="b" d="M98.021,234.654H96.736l.679-4c1.7-.726,1.636.953,2.358,1.729l.37-1.816h1.309l-.682,3.971c-1.656.708-1.631-.868-2.325-1.7Z" transform="translate(-96.736 -192.51)"/><path class="b" d="M277.512,233.365a7.51,7.51,0,0,1-.086-1.161,17.449,17.449,0,0,1,1.891-.273c-.149.866-.269,1.561-.388,2.254-.787.075-1.542.2-2.3.2a1.526,1.526,0,0,1-1.623-1.713,2.666,2.666,0,0,1,2.289-2.643c1.073-.17,1.72.265,2.1,1.638-.575-.127-1.03-.254-1.495-.322-.33-.048-.909-.124-.967,0a4.314,4.314,0,0,0-.383,1.618C276.553,233.085,277.161,233.226,277.512,233.365Z" transform="translate(-238.106 -192.134)"/><path class="b" d="M464.415,230.628c.594,0,1.139-.007,1.683,0,.893.015,1.775.082,1.987,1.2a2.419,2.419,0,0,1-1.4,2.717,21.163,21.163,0,0,1-3.013.359Zm1.28.725-.375,2.408c1.107-.042,1.391-.677,1.312-1.46C466.6,232.03,466.156,231.8,465.695,231.354Z" transform="translate(-387.715 -192.632)"/><path class="b" d="M176.341,234.4a1.61,1.61,0,0,1-1.831-1.751A2.585,2.585,0,0,1,177.1,230a1.718,1.718,0,0,1,1.858,1.775A2.6,2.6,0,0,1,176.341,234.4Zm1.569-2.439-1.064-.843a8.692,8.692,0,0,0-.908,1.438c-.058.141.387.49.6.743Z" transform="translate(-158.41 -192.134)"/><path class="b" d="M301.006,234.4a1.642,1.642,0,0,1-1.831-1.769A2.626,2.626,0,0,1,301.8,230a1.731,1.731,0,0,1,1.852,1.793A2.636,2.636,0,0,1,301.006,234.4Zm-.758-1.965c.448.418.679.818.925.828.82.034,1-.66,1.015-1.272.006-.287-.387-.582-.6-.874Z" transform="translate(-257.27 -192.132)"/><path class="b" d="M394.027,234.4a1.643,1.643,0,0,1-1.848-1.751A2.626,2.626,0,0,1,394.79,230a1.732,1.732,0,0,1,1.868,1.776A2.637,2.637,0,0,1,394.027,234.4Zm1.591-2.418-1.06-.866a6.124,6.124,0,0,0-.909,1.317c-.072.189.362.569.565.863Z" transform="translate(-331.021 -192.132)"/><path class="b" d="M541.987,234.4a1.628,1.628,0,0,1-1.815-1.772A2.579,2.579,0,0,1,542.784,230a1.729,1.729,0,0,1,1.851,1.794A2.617,2.617,0,0,1,541.987,234.4Zm1.6-2.459-1.083-.826a6.174,6.174,0,0,0-.874,1.337c-.066.188.376.556.586.841Z" transform="translate(-448.378 -192.132)"/><path class="b" d="M421.6,230.7c-.151.834-.257,1.618-.438,2.384a2.261,2.261,0,0,1-3.27,1.586,1.588,1.588,0,0,1-.694-1.206,20.6,20.6,0,0,1,.367-2.813h1.4c-.076.518-.15,1.012-.222,1.507-.068.468-.134.937-.2,1.4.7.38,1.059.119,1.222-.476a5.876,5.876,0,0,0,.251-1.417C420.043,230.615,420.566,230.384,421.6,230.7Z" transform="translate(-350.862 -192.588)"/><path class="b" d="M122.936,230.057l.81,4.532a11,11,0,0,0-1.565-.653,2.767,2.767,0,0,0-1.23,0,8.965,8.965,0,0,0-1.365.559l-.21-.27c.665-1.249,1.267-2.541,2.038-3.721C121.621,230.193,122.346,230.217,122.936,230.057Z" transform="translate(-114.69 -192.181)"/><path class="b" d="M489.135,235.125a6.847,6.847,0,0,0-1.287-.6,2.778,2.778,0,0,0-1.263.028,9.406,9.406,0,0,0-1.373.56l-.191-.256c.674-1.259,1.3-2.547,2.059-3.756.156-.25.781-.284,1.183-.265.167.008.4.4.457.646.236,1.11.418,2.231.619,3.348Z" transform="translate(-404.644 -192.799)"/><path class="b" d="M224.658,234.37a8.173,8.173,0,0,0-1.3-.608,2.314,2.314,0,0,0-1.17-.011,9.475,9.475,0,0,0-1.409.622l-.192-.293c.657-1.233,1.25-2.506,2.01-3.671.214-.327.918-.334,1.52-.528l.781,4.191Z" transform="translate(-194.946 -192.042)"/><path class="b" d="M344.249,232.242c.23.026.46.057.691.076.2.017.4.021.677.035l-.138.95-1.423.1-.335,1.352h-1.348c.215-1.254.41-2.49.656-3.715a.663.663,0,0,1,.493-.385c.888-.039,1.78-.018,2.652-.018.217.842-.109,1.07-.826,1.047a5.192,5.192,0,0,0-1.164.226Z" transform="translate(-291.525 -192.633)"/><path class="b" d="M373.835,233.439l-.282,1.269h-1.366c.208-1.217.378-2.4.634-3.558a.919.919,0,0,1,.67-.531c.817-.067,1.643-.025,2.458-.025.122,1,.12.977-.709,1.042a9.973,9.973,0,0,0-1.236.25l.064.339,1.3.107C375.338,233.15,375.338,233.15,373.835,233.439Z" transform="translate(-315.168 -192.597)"/><path class="b" d="M508.051,231.827l.236-.982h3.689l-.057.868c-.115.078-.173.152-.223.147-.88-.087-1.193.344-1.236,1.185a13.068,13.068,0,0,1-.358,1.875h-1.349l.462-2.922Z" transform="translate(-422.907 -192.806)"/><path class="b" d="M146.47,231.9l-1.2.075-.574,2.966h-1.341c.142-.964.283-1.92.433-2.939l-1.089-.128.113-.988H146.6Z" transform="translate(-133.188 -192.838)"/><path class="b" d="M322.767,235.123l.726-4.093h1.377l-.475,3.009,1.689.088c.1.639.035,1.044-.732,1.005C324.533,235.091,323.71,235.123,322.767,235.123Z" transform="translate(-275.978 -192.952)"/><path class="b" d="M245.538,230.861h1.377l-.474,3.042,1.675.093c0,1.118-.586,1.273-3.283.888Z" transform="translate(-214.176 -192.818)"/><path class="b" d="M529.182,235.022h-1.4l.712-4.054h1.4Z" transform="translate(-438.554 -192.903)"/><path class="b" d="M164.183,230.727l-.709,3.985h-1.4a30.036,30.036,0,0,0,.536-3.1C162.691,230.443,163.3,230.486,164.183,230.727Z" transform="translate(-148.548 -192.603)"/></g></svg>