<svg xmlns="http://www.w3.org/2000/svg" xmlns:xlink="http://www.w3.org/1999/xlink" width="1026" height="564" viewBox="0 0 1026 564"><defs><style>.a{fill:none;stroke:#707070;}.b{clip-path:url(#a);}.c{fill:url(#b);}</style><clipPath id="a"><rect class="a" width="1026" height="564" transform="translate(593.33 276.988)"/></clipPath><linearGradient id="b" x1="0.5" x2="0.5" y2="0.375" gradientUnits="objectBoundingBox"><stop offset="0" stop-color="#b4bf88"/><stop offset="1" stop-color="#f9f1e7"/></linearGradient></defs><g class="b" transform="translate(-593.33 -276.988)"><path class="c" d="M749.5,1499a761.566,761.566,0,0,1-76.632-3.869,751.475,751.475,0,0,1-74.418-11.357c-24.146-4.941-48.312-11.155-71.828-18.469-23.252-7.233-46.421-15.712-68.861-25.2-22.233-9.4-44.276-20.023-65.516-31.561-21.091-11.457-41.882-24.088-61.8-37.542-19.819-13.39-39.232-27.906-57.7-43.147-18.42-15.2-36.328-31.477-53.225-48.374s-33.171-34.8-48.374-53.225c-15.238-18.464-29.754-37.876-43.147-57.7-13.456-19.917-26.086-40.708-37.542-61.8-11.538-21.24-22.157-43.282-31.561-65.517-9.492-22.441-17.972-45.609-25.2-68.861-7.314-23.516-13.528-47.682-18.468-71.828A751.343,751.343,0,0,1,3.87,826.133a760.727,760.727,0,0,1,0-153.264A751.354,751.354,0,0,1,15.228,598.45c4.94-24.146,11.154-48.312,18.468-71.828,7.231-23.251,15.711-46.419,25.2-68.861,9.4-22.234,20.023-44.277,31.561-65.517,11.456-21.088,24.087-41.88,37.542-61.8,13.393-19.823,27.909-39.235,43.147-57.7,15.2-18.421,31.478-36.329,48.374-53.225s34.8-33.172,53.225-48.374c18.467-15.24,37.88-29.757,57.7-43.147,19.914-13.454,40.705-26.085,61.8-37.542C413.484,78.922,435.527,68.3,457.76,58.9c22.44-9.491,45.608-17.971,68.861-25.2,23.516-7.314,47.682-13.528,71.828-18.469A751.386,751.386,0,0,1,672.867,3.87a760.725,760.725,0,0,1,153.264,0A751.425,751.425,0,0,1,900.55,15.227C924.7,20.168,948.862,26.382,972.378,33.7c23.253,7.233,46.422,15.713,68.861,25.2,22.235,9.405,44.278,20.024,65.517,31.561,21.088,11.455,41.879,24.086,61.8,37.542,19.819,13.39,39.232,27.906,57.7,43.147,18.423,15.2,36.33,31.48,53.225,48.374s33.171,34.8,48.375,53.225c15.242,18.47,29.759,37.883,43.146,57.7,13.454,19.914,26.085,40.705,37.543,61.8,11.54,21.244,22.159,43.288,31.562,65.517,9.491,22.441,17.971,45.61,25.2,68.861,7.314,23.516,13.527,47.683,18.469,71.828a751.23,751.23,0,0,1,11.357,74.418,760.822,760.822,0,0,1,0,153.264,751.213,751.213,0,0,1-11.357,74.418c-4.94,24.145-11.154,48.311-18.469,71.828-7.232,23.252-15.712,46.42-25.2,68.861-9.4,22.23-20.021,44.273-31.562,65.517-11.457,21.091-24.089,41.882-37.543,61.8-13.387,19.817-27.9,39.229-43.146,57.7-15.2,18.423-31.479,36.33-48.375,53.225s-34.8,33.17-53.225,48.374c-18.467,15.24-37.88,29.757-57.7,43.147-19.917,13.456-40.709,26.087-61.8,37.542-21.239,11.538-43.282,22.156-65.517,31.561-22.439,9.491-45.607,17.971-68.861,25.2-23.516,7.314-47.683,13.528-71.829,18.469a751.5,751.5,0,0,1-74.418,11.357A761.576,761.576,0,0,1,749.5,1499Zm0-1264.149a522.877,522.877,0,0,0-52.62,2.657,515.981,515.981,0,0,0-51.1,7.8c-16.58,3.393-33.173,7.659-49.32,12.682-15.968,4.966-31.876,10.789-47.284,17.306-15.268,6.457-30.4,13.749-44.988,21.672-14.48,7.866-28.756,16.54-42.432,25.779a517.464,517.464,0,0,0-139.009,139.01c-9.24,13.678-17.914,27.954-25.778,42.433-7.922,14.584-15.214,29.72-21.671,44.988-6.519,15.413-12.342,31.322-17.306,47.284-5.021,16.145-9.289,32.739-12.682,49.321a516.1,516.1,0,0,0-7.8,51.1,522.426,522.426,0,0,0,0,105.24,516.073,516.073,0,0,0,7.8,51.1c3.394,16.582,7.661,33.177,12.682,49.321,4.964,15.962,10.787,31.871,17.306,47.284,6.458,15.268,13.749,30.4,21.671,44.988,7.865,14.478,16.538,28.755,25.778,42.433a517.463,517.463,0,0,0,139.009,139.01c13.676,9.239,27.952,17.912,42.432,25.779,14.584,7.923,29.72,15.214,44.988,21.672,15.408,6.517,31.316,12.34,47.284,17.306,16.147,5.022,32.74,9.289,49.32,12.682a515.959,515.959,0,0,0,51.1,7.8,522.333,522.333,0,0,0,105.24,0,515.871,515.871,0,0,0,51.1-7.8c16.58-3.393,33.174-7.659,49.321-12.682,15.967-4.966,31.876-10.789,47.284-17.306,15.267-6.457,30.4-13.748,44.988-21.672,14.481-7.867,28.758-16.54,42.433-25.779a517.475,517.475,0,0,0,139.01-139.01c9.24-13.677,17.913-27.954,25.779-42.433,7.925-14.59,15.216-29.726,21.671-44.988,6.518-15.408,12.34-31.316,17.307-47.284,5.022-16.15,9.289-32.744,12.682-49.321a516.084,516.084,0,0,0,7.8-51.1,522.331,522.331,0,0,0,0-105.24,516.117,516.117,0,0,0-7.8-51.1c-3.393-16.577-7.659-33.171-12.682-49.321-4.967-15.967-10.789-31.876-17.307-47.284-6.455-15.262-13.746-30.4-21.671-44.988-7.866-14.48-16.539-28.756-25.779-42.433a517.475,517.475,0,0,0-139.01-139.01c-13.675-9.239-27.952-17.912-42.433-25.779-14.585-7.923-29.721-15.215-44.988-21.672-15.408-6.517-31.317-12.34-47.284-17.306-16.147-5.023-32.742-9.289-49.321-12.682a515.925,515.925,0,0,0-51.1-7.8A522.894,522.894,0,0,0,749.5,234.851Z" transform="translate(574.33 276.988)"/></g></svg>