<svg xmlns="http://www.w3.org/2000/svg" width="104" height="104" viewBox="0 0 104 104"><defs><style>.a{fill:#dc4444;}.b{fill:#fff;}</style></defs><g transform="translate(1584 -11825)"><rect class="a" width="104" height="104" transform="translate(-1584 11825)"/><g transform="translate(-5509.671 11633.155)"><g transform="translate(3952.656 224.181)"><path class="b" d="M3963.185,224.736c-2.949-.7-6.465-.539-9.443-.539h-1.063s-.023,4.838-.023,6.322h5.59c4.444,0,9.045,1.726,11.57,6.129a12.934,12.934,0,0,1-.6,14.6c-2.451,3.589-5.7,4.935-10.021,5.272l-.245.016V238.648h-6.207v23.977l6.739-.006c.093,0,.183,0,.272-.007a19.148,19.148,0,0,0,17.922-15.837A19.365,19.365,0,0,0,3963.185,224.736Z" transform="translate(-3952.656 -224.181)"/><path class="b" d="M4182.479,224.208h-.037a17.141,17.141,0,0,0-17.085,17.121h6.375a10.76,10.76,0,0,1,10.711-10.747v0h4.229v-6.379Z" transform="translate(-4135.871 -224.204)"/><path class="b" d="M4165.935,353.333V356.3h6.375v-2.965a14.223,14.223,0,0,1,14.207-14.207h.717v-6.375h-.717A20.6,20.6,0,0,0,4165.935,353.333Z" transform="translate(-4136.369 -317.701)"/></g></g></g></svg>